<mxfile host="65bd71144e">
    <diagram id="IKv61fmJVMxKtXIGsCpo" name="Page-1">
        <mxGraphModel dx="1724" dy="896" grid="1" gridSize="10" guides="1" tooltips="1" connect="1" arrows="1" fold="1" page="1" pageScale="1" pageWidth="850" pageHeight="1100" background="#ffffff" math="0" shadow="0">
            <root>
                <mxCell id="0"/>
                <mxCell id="1" parent="0"/>
                <mxCell id="2" value="" style="ellipse;whiteSpace=wrap;html=1;rotation=90;labelBackgroundColor=none;fillColor=#FFFFFF;strokeColor=#464749;fontColor=#464749;rounded=1;shadow=1;fontFamily=Arial Nova Light;" parent="1" vertex="1">
                    <mxGeometry x="480" y="360" width="110" height="75" as="geometry"/>
                </mxCell>
                <mxCell id="3" value="FFD&lt;br&gt;XCORE Device" style="whiteSpace=wrap;html=1;aspect=fixed;verticalAlign=top;fontSize=16;labelBackgroundColor=none;fillColor=#D1D3D4;strokeColor=#464749;fontColor=#464749;rounded=1;glass=0;shadow=1;fontFamily=Arial Nova Light;fontStyle=1" parent="1" vertex="1">
                    <mxGeometry x="20" y="260" width="300" height="300" as="geometry"/>
                </mxCell>
                <mxCell id="4" style="edgeStyle=orthogonalEdgeStyle;rounded=1;orthogonalLoop=1;jettySize=auto;html=1;exitX=1;exitY=0.5;exitDx=0;exitDy=0;entryX=0;entryY=0.5;entryDx=0;entryDy=0;fontSize=16;labelBackgroundColor=none;strokeColor=#464749;fontColor=default;fontFamily=Arial Nova Light;" parent="1" source="5" target="6" edge="1">
                    <mxGeometry relative="1" as="geometry"/>
                </mxCell>
                <mxCell id="5" value="DAC" style="rounded=1;whiteSpace=wrap;html=1;fontSize=16;labelBackgroundColor=none;fillColor=#FFFFFF;strokeColor=#464749;fontColor=#464749;rotation=0;shadow=1;fontFamily=Arial Nova Light;fontStyle=1" parent="1" vertex="1">
                    <mxGeometry x="100" y="618.5" width="140" height="80" as="geometry"/>
                </mxCell>
                <mxCell id="6" value="" style="rounded=1;whiteSpace=wrap;html=1;fontSize=16;labelBackgroundColor=none;fillColor=#D1D3D4;strokeColor=#464749;fontColor=#464749;shadow=1;fontFamily=Arial Nova Light;" parent="1" vertex="1">
                    <mxGeometry x="280" y="626" width="50" height="65" as="geometry"/>
                </mxCell>
                <mxCell id="7" value="" style="shape=trapezoid;perimeter=trapezoidPerimeter;whiteSpace=wrap;html=1;fixedSize=1;fontSize=16;rotation=-90;size=45;labelBackgroundColor=none;fillColor=#D1D3D4;strokeColor=#464749;fontColor=#464749;rounded=1;shadow=1;fontFamily=Arial Nova Light;" parent="1" vertex="1">
                    <mxGeometry x="280" y="631" width="155" height="55" as="geometry"/>
                </mxCell>
                <mxCell id="8" style="edgeStyle=orthogonalEdgeStyle;rounded=1;orthogonalLoop=1;jettySize=auto;html=1;exitX=0.5;exitY=1;exitDx=0;exitDy=0;labelBackgroundColor=none;strokeColor=#464749;fontColor=default;fontFamily=Arial Nova Light;" parent="1" source="9" target="5" edge="1">
                    <mxGeometry relative="1" as="geometry"/>
                </mxCell>
                <mxCell id="9" value="I2S Master" style="rounded=1;whiteSpace=wrap;html=1;labelBackgroundColor=none;fillColor=#FFFFFF;strokeColor=#464749;fontColor=#464749;fontFamily=Arial Nova Light;" parent="1" vertex="1">
                    <mxGeometry x="60" y="480" width="220" height="60" as="geometry"/>
                </mxCell>
                <mxCell id="10" style="edgeStyle=orthogonalEdgeStyle;rounded=1;orthogonalLoop=1;jettySize=auto;html=1;exitX=0.995;exitY=0.818;exitDx=0;exitDy=0;entryX=0.5;entryY=1;entryDx=0;entryDy=0;endArrow=classic;endFill=1;strokeWidth=1;startArrow=none;startFill=0;labelBackgroundColor=none;strokeColor=#464749;fontColor=default;exitPerimeter=0;entryPerimeter=0;fontFamily=Arial Nova Light;" parent="1" source="13" target="14" edge="1">
                    <mxGeometry relative="1" as="geometry">
                        <Array as="points">
                            <mxPoint x="430" y="436"/>
                            <mxPoint x="430" y="576"/>
                        </Array>
                    </mxGeometry>
                </mxCell>
                <mxCell id="11" style="edgeStyle=orthogonalEdgeStyle;rounded=1;orthogonalLoop=1;jettySize=auto;html=1;exitX=1;exitY=0.5;exitDx=0;exitDy=0;entryX=0.5;entryY=1;entryDx=0;entryDy=0;startArrow=none;startFill=0;endArrow=classic;endFill=1;strokeWidth=1;labelBackgroundColor=none;strokeColor=#464749;fontColor=default;fontFamily=Arial Nova Light;" parent="1" source="13" target="2" edge="1">
                    <mxGeometry relative="1" as="geometry"/>
                </mxCell>
                <mxCell id="12" style="edgeStyle=orthogonalEdgeStyle;rounded=1;orthogonalLoop=1;jettySize=auto;html=1;exitX=1;exitY=0.25;exitDx=0;exitDy=0;entryX=0;entryY=0.5;entryDx=0;entryDy=0;startArrow=none;startFill=0;endArrow=classic;endFill=1;strokeWidth=1;labelBackgroundColor=none;strokeColor=#464749;fontColor=default;fontFamily=Arial Nova Light;" parent="1" source="13" target="18" edge="1">
                    <mxGeometry relative="1" as="geometry"/>
                </mxCell>
                <mxCell id="13" value="User developed control" style="rounded=1;whiteSpace=wrap;html=1;labelBackgroundColor=none;fillColor=#FFFFFF;strokeColor=#464749;fontColor=#464749;rotation=0;fontFamily=Arial Nova Light;" parent="1" vertex="1">
                    <mxGeometry x="60" y="337.5" width="220" height="120" as="geometry"/>
                </mxCell>
                <mxCell id="14" value="" style="shape=cylinder3;whiteSpace=wrap;html=1;boundedLbl=1;backgroundOutline=1;size=15;rotation=90;labelBackgroundColor=none;fillColor=#FFFFFF;strokeColor=#464749;fontColor=#464749;rounded=1;shadow=1;fontFamily=Arial Nova Light;" parent="1" vertex="1">
                    <mxGeometry x="490" y="521" width="90" height="110" as="geometry"/>
                </mxCell>
                <mxCell id="15" value="" style="shape=cylinder3;whiteSpace=wrap;html=1;boundedLbl=1;backgroundOutline=1;size=6;rotation=90;labelBackgroundColor=none;fillColor=#FFFFFF;strokeColor=#464749;fontColor=#464749;rounded=1;shadow=1;fontFamily=Arial Nova Light;" parent="1" vertex="1">
                    <mxGeometry x="590" y="551" width="20" height="50" as="geometry"/>
                </mxCell>
                <mxCell id="16" value="" style="shape=cylinder3;whiteSpace=wrap;html=1;boundedLbl=1;backgroundOutline=1;size=6.5;rotation=-180;labelBackgroundColor=none;fillColor=#FFFFFF;strokeColor=#464749;fontColor=#464749;rounded=1;shadow=1;fontFamily=Arial Nova Light;" parent="1" vertex="1">
                    <mxGeometry x="515" y="437.5" width="40" height="60" as="geometry"/>
                </mxCell>
                <mxCell id="17" value="" style="curved=1;endArrow=none;html=1;rounded=1;exitX=0.5;exitY=1;exitDx=0;exitDy=0;exitPerimeter=0;entryX=0.5;entryY=1;entryDx=0;entryDy=0;entryPerimeter=0;endFill=0;labelBackgroundColor=none;strokeColor=#464749;fontColor=default;shadow=0;fontFamily=Arial Nova Light;" parent="1" source="16" target="16" edge="1">
                    <mxGeometry width="50" height="50" relative="1" as="geometry">
                        <mxPoint x="370" y="480" as="sourcePoint"/>
                        <mxPoint x="420" y="430" as="targetPoint"/>
                        <Array as="points">
                            <mxPoint x="520" y="390"/>
                            <mxPoint x="530" y="400"/>
                            <mxPoint x="520" y="420"/>
                            <mxPoint x="550" y="420"/>
                            <mxPoint x="540" y="400"/>
                            <mxPoint x="550" y="390"/>
                            <mxPoint x="540" y="410"/>
                        </Array>
                    </mxGeometry>
                </mxCell>
                <mxCell id="18" value="" style="rounded=1;whiteSpace=wrap;html=1;labelBackgroundColor=none;fillColor=#D1D3D4;strokeColor=#464749;fontColor=#464749;shadow=1;fontFamily=Arial Nova Light;" parent="1" vertex="1">
                    <mxGeometry x="410" y="180" width="240" height="120" as="geometry"/>
                </mxCell>
                <mxCell id="19" value="" style="rounded=1;whiteSpace=wrap;html=1;labelBackgroundColor=none;fillColor=#FFFFFF;strokeColor=#464749;fontColor=#464749;shadow=0;fontFamily=Arial Nova Light;" parent="1" vertex="1">
                    <mxGeometry x="420" y="190" width="220" height="100" as="geometry"/>
                </mxCell>
                <mxCell id="20" value="" style="shape=trapezoid;perimeter=trapezoidPerimeter;whiteSpace=wrap;html=1;fixedSize=1;fontSize=16;rotation=0;size=20;labelBackgroundColor=none;fillColor=#D1D3D4;strokeColor=#464749;fontColor=#464749;rounded=1;shadow=1;fontFamily=Arial Nova Light;" parent="1" vertex="1">
                    <mxGeometry x="450" y="300" width="160" height="10" as="geometry"/>
                </mxCell>
            </root>
        </mxGraphModel>
    </diagram>
</mxfile>